<?xml version="1.0" standalone="no"?>
<!DOCTYPE svg PUBLIC "-//W3C//DTD SVG 20010904//EN"
 "http://www.w3.org/TR/2001/REC-SVG-20010904/DTD/svg10.dtd">
<svg version="1.0" xmlns="http://www.w3.org/2000/svg"
 width="1536.000000pt" height="1024.000000pt" viewBox="0 0 1536.000000 1024.000000"
 preserveAspectRatio="xMidYMid meet">

<g transform="translate(0.000000,1024.000000) scale(0.100000,-0.100000)"
fill="#000000" stroke="none">
<path d="M5887 7650 c-68 -12 -132 -46 -167 -88 -64 -77 -60 80 -60 -2342 0
-2473 -6 -2274 73 -2354 24 -24 59 -47 83 -54 30 -9 150 -12 425 -12 364 0
386 1 429 21 58 26 77 44 106 101 l24 47 0 666 0 665 773 0 c814 0 945 5 1116
44 744 168 1239 844 1208 1652 -26 677 -414 1240 -1031 1499 -181 76 -303 110
-516 142 -92 15 -250 17 -1260 19 -635 1 -1176 -2 -1203 -6z m2328 -924 c242
-64 408 -192 506 -392 70 -142 93 -257 85 -419 -6 -143 -30 -237 -89 -349 -94
-182 -271 -311 -503 -368 -86 -21 -113 -22 -751 -25 l-663 -4 0 791 0 791 673
-4 c610 -3 678 -5 742 -21z"/>
<path d="M8802 4085 c-247 -54 -431 -267 -449 -521 -19 -267 153 -512 412
-590 82 -25 257 -25 340 0 177 52 326 194 386 366 31 89 37 232 14 320 -80
308 -387 493 -703 425z"/>
</g>
</svg>
